<svg width="128" height="128" viewBox="0 0 128 128" fill="none" xmlns="http://www.w3.org/2000/svg">
<rect x="0.5" y="0.5" width="127" height="127" rx="23.5" fill="white"/>
<rect x="0.5" y="0.5" width="127" height="127" rx="23.5" stroke="#D1D5DB"/>
<g clip-path="url(#clip0_11573_10288)">
<path d="M63.9973 24C53.3284 24 43.2755 28.2895 35.6973 36.0767C28.1521 43.8254 24 54.0818 24 64.9596V99.001C24 101.762 26.2383 104 28.999 104C31.7597 104 33.9979 101.762 33.9979 99.001V64.9596C33.9979 56.705 37.1436 48.9234 42.863 43.05C48.5439 37.2151 56.0506 33.9979 63.9973 33.9979C71.9439 33.9979 79.4506 37.2096 85.1315 43.05C90.8454 48.9234 93.9966 56.705 93.9966 64.9596V99.001C93.9966 101.762 96.2348 104 98.9955 104C101.756 104 103.995 101.762 103.995 99.001V64.9596C103.995 54.0818 99.8424 43.8254 92.2972 36.0767C84.7246 28.2895 74.6716 24 63.9973 24Z" fill="black"/>
<path d="M63.997 63.9973C61.2363 63.9973 58.998 66.2355 58.998 68.9962V98.9955C58.998 101.756 61.2363 103.995 63.997 103.995C66.7577 103.995 68.996 101.756 68.996 98.9955V68.9962C68.996 66.2355 66.7577 63.9973 63.997 63.9973Z" fill="#FA5E06"/>
</g>
<defs>
<clipPath id="clip0_11573_10288">
<rect width="80" height="80" fill="white" transform="translate(24 24)"/>
</clipPath>
</defs>
</svg>
