<svg width="373" height="373" viewBox="0 0 373 373" fill="none" xmlns="http://www.w3.org/2000/svg">
<path d="M44.7844 230.944C20.0506 206.21 20.0506 166.109 44.7844 141.375L118.566 67.5936L163.35 112.378L44.7844 230.944Z" fill="#84908C"/>
<path d="M112.376 163.351C87.6424 138.618 87.6424 98.5163 112.376 73.7825L186.158 0.00105091L230.942 44.7854L112.376 163.351Z" fill="#E6E9E8"/>
<path d="M78.5832 197.148C53.8495 172.414 53.8495 132.313 78.5832 107.579L152.365 33.7977L197.149 78.582L78.5832 197.148Z" fill="url(#paint0_linear_113_100)"/>
<path d="M70.1562 256.316L143.938 182.534C168.671 157.8 208.773 157.8 233.506 182.534L159.725 256.316C134.991 281.049 94.89 281.049 70.1562 256.316Z" fill="#84908C"/>
<path d="M137.748 188.723L211.53 114.941C236.263 90.2077 276.365 90.2077 301.098 114.941L227.317 188.723C202.583 213.457 162.482 213.457 137.748 188.723Z" fill="#E6E9E8"/>
<path d="M103.955 222.52L177.737 148.738C202.47 124.004 242.572 124.004 267.305 148.738L193.524 222.52C168.79 247.253 128.689 247.253 103.955 222.52Z" fill="url(#paint1_linear_113_100)"/>
<path d="M141.809 327.966L260.374 209.4C285.108 234.134 285.108 274.235 260.374 298.969L186.593 372.75L141.809 327.966Z" fill="#84908C"/>
<path d="M209.4 260.373L327.966 141.807C352.7 166.541 352.7 206.642 327.966 231.376L254.185 305.158L209.4 260.373Z" fill="#E6E9E8"/>
<path d="M175.607 294.17L294.173 175.604C318.907 200.338 318.907 240.439 294.173 265.173L220.392 338.954L175.607 294.17Z" fill="url(#paint2_linear_113_100)"/>
<defs>
<linearGradient id="paint0_linear_113_100" x1="58.2157" y1="170.169" x2="201.516" y2="26.122" gradientUnits="userSpaceOnUse">
<stop stop-color="#E6E9E8"/>
<stop offset="1" stop-color="#84908C"/>
</linearGradient>
<linearGradient id="paint1_linear_113_100" x1="133.596" y1="236.594" x2="267.194" y2="104.489" gradientUnits="userSpaceOnUse">
<stop stop-color="#E6E9E8"/>
<stop offset="1" stop-color="#84908C"/>
</linearGradient>
<linearGradient id="paint2_linear_113_100" x1="197.039" y1="316.454" x2="334.368" y2="176.139" gradientUnits="userSpaceOnUse">
<stop stop-color="#E6E9E8"/>
<stop offset="1" stop-color="#84908C"/>
</linearGradient>
</defs>
</svg>
